<?xml version="1.0" encoding="UTF-8"?> <svg xmlns="http://www.w3.org/2000/svg" id="Layer_1" data-name="Layer 1" width="350" height="350" version="1.1" viewBox="0 0 350 350"><defs><style> .cls-1 { fill: #ff7340; stroke-width: 0px; } </style></defs><path class="cls-1" d="M110.6,250.7l10.4-12.8c1-1.2,1.6-2.8,1.6-4.4V102.8h-12.7v147.7c0,.4.5.6.8.3Z"></path><path class="cls-1" d="M263,62.2c-2.2-4.7-6.8-7.6-12-7.6H120.8c-6.1,0-11,4.9-11,11v13.1h-13.1c-6.1,0-11,4.9-11,11v191.7c0,5.8,3.4,11.3,8.9,13.2,1.5.5,3,.8,4.5.8,3.9,0,7.7-1.7,10.3-4.9l31.6-39c3.6-4.4,5.6-10,5.6-15.7v-72.1h31.4c2.1,0,4.1-.9,5.4-2.6l7.6-9.4c.2-.3,0-.8-.4-.8h-44.1v-11.3h67.6c.1,0,.4,0,.5.3.2.3,0,.5,0,.6l-24.3,29.9c-2.3,2.8-5.8,4.5-9.4,4.5h-23v12.7h23c7.5,0,14.6-3.4,19.3-9.2l24.3-29.9c3.3-4.1,3.9-9.6,1.6-14.3-2.3-4.7-7.3-7.4-12.6-7.4h-79.8v108.9c0,2.8-1,5.5-2.7,7.7l-31.6,39c-.1.1-.3.3-.6.2-.4-.1-.4-.4-.4-.5V91.4h116.3c2.1,0,4.1-.9,5.4-2.6l7.6-9.4c.2-.3,0-.8-.4-.8h-104.9v-11.3h128.4c.1,0,.4,0,.5.3.2.3,0,.5,0,.6l-24.3,29.9c-2.3,2.9-5.8,4.5-9.4,4.5h-83.8v12.7h83.8c7.5,0,14.6-3.4,19.3-9.2l24.3-29.9c3.3-4,3.9-9.4,1.7-14.1Z"></path><metadata></metadata></svg> 