<?xml version="1.0" encoding="UTF-8"?>
<svg version="1.1" xmlns="http://www.w3.org/2000/svg" width="600" height="600">
<path d="M0 0 C1.10788879 0.00215515 2.21577759 0.0043103 3.35723877 0.00653076 C19.24228196 0.05616166 34.78839806 0.33298322 50.4375 3.3125 C51.54561035 3.51649414 52.6537207 3.72048828 53.79541016 3.93066406 C69.72807694 6.92662467 85.1427636 10.95051595 100.4375 16.3125 C101.14197266 16.55436035 101.84644531 16.7962207 102.57226562 17.04541016 C138.93033116 29.60434273 172.80060587 49.87554428 200.98828125 76.046875 C203.12137867 78.02007517 205.29108987 79.92544703 207.5 81.8125 C215.06148841 88.39781265 222.005208 95.62878932 228.4375 103.3125 C228.86836914 103.81362305 229.29923828 104.31474609 229.74316406 104.83105469 C243.97595126 121.41842537 256.48206019 139.83959235 266.4375 159.3125 C266.89576172 160.20453125 267.35402344 161.0965625 267.82617188 162.015625 C275.63362921 177.36656841 282.1100656 192.93678626 287.4375 209.3125 C287.72850586 210.20356445 288.01951172 211.09462891 288.31933594 212.01269531 C297.48953922 240.64662807 300.85464394 269.94515362 300.75 299.875 C300.74784485 300.98288879 300.7456897 302.09077759 300.74346924 303.23223877 C300.69379987 319.12959578 300.37381457 334.64674803 297.4375 350.3125 C297.25477539 351.36211914 297.07205078 352.41173828 296.88378906 353.49316406 C292.28249189 379.47651544 284.25113931 405.66040281 272.4375 429.3125 C271.98181641 430.24400879 271.52613281 431.17551758 271.05664062 432.13525391 C261.17963746 452.23105822 249.58111779 470.93671024 235.4375 488.3125 C235.01968262 488.82651367 234.60186523 489.34052734 234.17138672 489.87011719 C219.06047035 508.35729914 202.51025664 524.94094647 183.4375 539.3125 C182.78217285 539.81362305 182.1268457 540.31474609 181.45166016 540.83105469 C144.5166481 568.9728512 101.10487302 587.52905079 55.5625 596.125 C54.53084717 596.3199707 53.49919434 596.51494141 52.4362793 596.71582031 C35.27601891 599.76521862 18.27951335 600.69219612 0.875 600.625 C-0.63861115 600.62176727 -0.63861115 600.62176727 -2.18280029 600.61846924 C-17.82209973 600.56499574 -33.13170693 600.08705132 -48.5625 597.3125 C-49.67077148 597.11382324 -50.77904297 596.91514648 -51.92089844 596.71044922 C-102.05045961 587.39748454 -149.03396741 566.74616777 -188.5625 534.3125 C-189.58988281 533.4875 -190.61726563 532.6625 -191.67578125 531.8125 C-199.52138146 525.38508898 -206.75039036 518.33337077 -213.9375 511.1875 C-214.8648999 510.26936523 -215.7922998 509.35123047 -216.74780273 508.40527344 C-222.45116587 502.67573632 -227.66035808 496.74145306 -232.5625 490.3125 C-229.8808413 487.42939137 -227.42349584 485.49143305 -223.9140625 483.71875 C-223.00132568 483.25130371 -222.08858887 482.78385742 -221.14819336 482.30224609 C-220.17116455 481.81062988 -219.19413574 481.31901367 -218.1875 480.8125 C-216.11746341 479.75460974 -214.04848029 478.69465596 -211.98046875 477.6328125 C-210.92134277 477.08915039 -209.8622168 476.54548828 -208.77099609 475.98535156 C-202.70087818 472.82050238 -196.71999644 469.48964732 -190.74658203 466.14648438 C-186.42707752 463.75624473 -182.34934841 461.64873026 -177.5625 460.3125 C-177.04453857 460.84093506 -176.52657715 461.36937012 -175.99291992 461.91381836 C-162.43912567 475.84996021 -162.43912567 475.84996021 -147.5625 488.3125 C-146.73685547 488.94478516 -146.73685547 488.94478516 -145.89453125 489.58984375 C-136.83268013 496.52874494 -127.51831948 502.73485592 -117.5625 508.3125 C-116.79728027 508.745625 -116.03206055 509.17875 -115.24365234 509.625 C-59.49358591 540.90457503 6.13388185 547.21886589 67.4375 530.3125 C91.76656074 523.37241408 115.88331506 512.09955692 136.4375 497.3125 C137.50355469 496.55582031 138.56960938 495.79914063 139.66796875 495.01953125 C147.23288863 489.49019137 154.38258554 483.47158707 161.4375 477.3125 C161.9423291 476.87228516 162.4471582 476.43207031 162.96728516 475.97851562 C168.9250816 470.75299504 174.36513639 465.39077538 179.4375 459.3125 C180.23414063 458.4153125 181.03078125 457.518125 181.8515625 456.59375 C203.69845596 431.83233162 219.57044307 401.717674 229.4375 370.3125 C229.67307617 369.57499512 229.90865234 368.83749023 230.15136719 368.07763672 C248.85592961 308.64195513 240.22967734 243.33944647 212.4375 188.3125 C203.50237699 171.26477676 192.1743662 155.69902056 179.4375 141.3125 C178.6434375 140.40757812 177.849375 139.50265625 177.03125 138.5703125 C169.09488799 129.62831557 160.81766377 121.73484888 151.4375 114.3125 C150.47199219 113.53003906 149.50648438 112.74757813 148.51171875 111.94140625 C119.04674749 88.54165144 84.06825913 72.61964925 47.25 65.0625 C46.51563721 64.91127686 45.78127441 64.76005371 45.0246582 64.60424805 C30.44701703 61.8092927 15.938072 60.90060012 1.125 60.9375 C-0.17718475 60.93881424 -0.17718475 60.93881424 -1.50567627 60.94015503 C-39.76250462 61.0665899 -76.82285099 70.1337728 -110.5625 88.3125 C-111.21524902 88.65893555 -111.86799805 89.00537109 -112.54052734 89.36230469 C-127.24990505 97.203002 -140.94702355 106.3948811 -153.5625 117.3125 C-154.75166016 118.33537109 -154.75166016 118.33537109 -155.96484375 119.37890625 C-163.50018505 126.01049511 -170.51413053 133.17272517 -177.5625 140.3125 C-181.84138168 138.99699266 -185.63419331 137.34891095 -189.5703125 135.22265625 C-190.71330811 134.60801514 -191.85630371 133.99337402 -193.03393555 133.36010742 C-194.25193816 132.69867704 -195.46979014 132.0369692 -196.6875 131.375 C-197.93711226 130.69936 -199.18686933 130.02398776 -200.43676758 129.34887695 C-202.9489675 127.99058055 -205.4593221 126.62895709 -207.96826172 125.26464844 C-211.24616112 123.48255115 -214.53082001 121.71320222 -217.81640625 119.9453125 C-219.62796012 118.96419863 -221.43918236 117.98247205 -223.25 117 C-224.08611816 116.55084229 -224.92223633 116.10168457 -225.78369141 115.63891602 C-226.91750244 115.01907837 -226.91750244 115.01907837 -228.07421875 114.38671875 C-228.72865967 114.03182373 -229.38310059 113.67692871 -230.05737305 113.3112793 C-231.5625 112.3125 -231.5625 112.3125 -232.5625 110.3125 C-226.64644037 102.79596047 -220.42874467 95.97412148 -213.5625 89.3125 C-211.03944079 86.80535914 -208.53480809 84.28403168 -206.0546875 81.734375 C-199.89748458 75.44851411 -193.54306145 69.68789484 -186.5625 64.3125 C-185.9240918 63.81411621 -185.28568359 63.31573242 -184.62792969 62.80224609 C-156.33022839 40.82720985 -124.62792043 24.32859497 -90.5625 13.3125 C-89.67433594 13.02294434 -88.78617188 12.73338867 -87.87109375 12.43505859 C-59.23406127 3.26192168 -29.93377689 -0.10465768 0 0 Z " fill="#0047BB" transform="translate(299.5625,-0.31250000000000006)"/>
<path d="M0 0 C3.3582842 1.29568372 6.55519335 2.73415258 9.74609375 4.3984375 C10.65383545 4.87128174 11.56157715 5.34412598 12.49682617 5.83129883 C13.46724854 6.34072021 14.4376709 6.8501416 15.4375 7.375 C16.45884033 7.90955811 17.48018066 8.44411621 18.5324707 8.99487305 C26.1887788 13.01610024 33.79271381 17.12741605 41.37475586 21.28662109 C48.89040538 25.40684193 56.44058151 29.46086076 64 33.5 C72.35303115 37.96429133 80.692256 42.4518413 89 47 C97.22651813 51.50253608 105.4807468 55.95147148 113.75 60.375 C114.34002808 60.69063904 114.93005615 61.00627808 115.53796387 61.33148193 C116.73093403 61.96963998 117.92390685 62.60779306 119.11688232 63.24594116 C119.70737366 63.56181183 120.29786499 63.8776825 120.90625 64.203125 C121.49722473 64.51923737 122.08819946 64.83534973 122.69708252 65.16104126 C138.14677556 73.42733292 153.56233632 81.75704604 168.96630859 90.1081543 C180.6309989 96.42995376 192.31590331 102.714164 204 109 C217.95066501 116.50520939 231.89603468 124.01976649 245.82275391 131.56933594 C252.8750811 135.392182 259.9330398 139.20426942 267 143 C267 143.66 267 144.32 267 145 C265.62787354 145.72364746 265.62787354 145.72364746 264.22802734 146.46191406 C248.21095175 154.9120608 232.20729238 163.37858634 216.328125 172.0859375 C210.31859942 175.3796632 204.28521131 178.62863892 198.25 181.875 C197.16428711 182.45910645 196.07857422 183.04321289 194.95996094 183.64501953 C190.52970253 186.02777305 186.09882141 188.40936739 181.66796875 190.79101562 C170.47086365 196.81061091 159.27793758 202.83637997 148.125 208.9375 C139.17511581 213.83345833 130.18773126 218.65779653 121.19104004 223.46697998 C113.40065785 227.63216875 105.62515017 231.822846 97.875 236.0625 C86.71631135 242.1667661 75.51743424 248.19526656 64.31445312 254.21777344 C57.80544787 257.71775416 51.29923727 261.22292739 44.79272461 264.72753906 C39.74235515 267.44752868 34.69142288 270.16645375 29.63821411 272.88116455 C27.84915018 273.84236511 26.0602873 274.8039388 24.27148438 275.765625 C22.0270918 276.9720969 19.78232239 278.17786812 17.53710938 279.3828125 C16.0124707 280.20265625 16.0124707 280.20265625 14.45703125 281.0390625 C13.50908691 281.54727539 12.56114258 282.05548828 11.58447266 282.57910156 C9.33193495 283.8175079 7.1420721 285.12127428 4.94921875 286.4609375 C3.97597656 286.96882813 3.00273438 287.47671875 2 288 C-1 287 -1 287 -2.39111328 284.8046875 C-2.86274902 283.83789062 -3.33438477 282.87109375 -3.8203125 281.875 C-4.35180908 280.78678955 -4.88330566 279.6985791 -5.4309082 278.57739258 C-6.26948364 276.80658325 -6.26948364 276.80658325 -7.125 275 C-7.41079926 274.40351654 -7.69659851 273.80703308 -7.99105835 273.19247437 C-13.92025467 260.78665969 -18.66597798 248.0498615 -23 235 C-20.78269959 232.55938702 -18.65240308 231.14399541 -15.703125 229.6875 C-14.40785889 229.04325073 -14.40785889 229.04325073 -13.08642578 228.38598633 C-12.15040527 227.92861084 -11.21438477 227.47123535 -10.25 227 C-9.26628418 226.51362061 -8.28256836 226.02724121 -7.26904297 225.52612305 C0.34913425 221.7727034 8.01389961 218.11894777 15.68652344 214.47851562 C24.87531094 210.09998642 33.96682118 205.53408229 43.06134033 200.96420288 C54.62087677 195.1582842 66.24221346 189.50132845 77.94238281 183.98291016 C79.97330084 183.01275401 81.98687685 182.00656157 84 181 C44.73 180.67 5.46 180.34 -35 180 C-36.12528813 170.99769499 -36.12528813 170.99769499 -36.12939453 166.73657227 C-36.13254669 165.78520889 -36.13569885 164.83384552 -36.13894653 163.85365295 C-36.1369223 162.85136154 -36.13489807 161.84907013 -36.1328125 160.81640625 C-36.13376923 159.76146469 -36.13472595 158.70652313 -36.13571167 157.61961365 C-36.13638929 155.39834534 -36.13456429 153.177075 -36.13037109 150.95581055 C-36.12502234 147.57661437 -36.13032761 144.19755143 -36.13671875 140.81835938 C-36.13605779 138.65104138 -36.13477626 136.48372346 -36.1328125 134.31640625 C-36.13584885 132.81600548 -36.13584885 132.81600548 -36.13894653 131.28529358 C-36.13579437 130.33077805 -36.13264221 129.37626251 -36.12939453 128.39282227 C-36.12859894 127.56645767 -36.12780334 126.74009308 -36.12698364 125.88868713 C-35.9521668 121.91186644 -35.43959049 117.95631444 -35 114 C3.94 113.67 42.88 113.34 83 113 C65.08250935 102.836497 65.08250935 102.836497 47 93 C37.92318567 88.15009368 28.93824807 83.16657011 20.0065918 78.05493164 C14.39749742 74.86449544 8.74255766 71.77928419 3.03515625 68.76953125 C2.35337311 68.40941956 1.67158997 68.04930786 0.96914673 67.67828369 C-2.39888826 65.90126164 -5.77150591 64.13381588 -9.15136719 62.37939453 C-10.38618308 61.73101394 -11.62088889 61.08242366 -12.85546875 60.43359375 C-13.94496826 59.86697021 -15.03446777 59.30034668 -16.15698242 58.71655273 C-18.89565365 57.06300208 -20.86195538 55.36221791 -23 53 C-16.89873476 34.55887675 -9.59732925 16.9110496 0 0 Z " fill="#0047BB" transform="translate(36,156)"/>
</svg>
