<svg width="250" height="250" viewBox="0 0 250 250" fill="none" xmlns="http://www.w3.org/2000/svg">
<path d="M125 246.488C121.242 246.497 117.595 245.22 114.663 242.869L2.50027 152.563C1.94821 152.167 1.48264 151.663 1.13197 151.081C0.781306 150.499 0.552898 149.852 0.460693 149.179C0.368488 148.506 0.414419 147.821 0.595684 147.166C0.776949 146.511 1.08974 145.9 1.51498 145.371C1.94021 144.841 2.46895 144.403 3.06894 144.084C3.66893 143.766 4.32757 143.573 5.00466 143.517C5.68175 143.461 6.36309 143.544 7.00707 143.761C7.65106 143.977 8.2442 144.322 8.75027 144.776L120.938 235.082C122.098 235.988 123.528 236.48 125 236.48C126.473 236.48 127.902 235.988 129.063 235.082L240.944 145.001C241.45 144.547 242.043 144.202 242.687 143.986C243.331 143.769 244.013 143.686 244.69 143.742C245.367 143.798 246.025 143.991 246.625 144.309C247.225 144.628 247.754 145.066 248.179 145.596C248.605 146.125 248.917 146.736 249.099 147.391C249.28 148.046 249.326 148.731 249.234 149.404C249.141 150.077 248.913 150.724 248.562 151.306C248.212 151.888 247.746 152.392 247.194 152.788L135.319 242.888C132.39 245.228 128.749 246.498 125 246.488Z" fill="#0095D3"/>
<path d="M50.0439 108.05C49.0117 108.046 48.0061 107.723 47.1651 107.125C46.324 106.526 45.6887 105.683 45.3463 104.709C45.004 103.735 44.9713 102.679 45.2529 101.686C45.5344 100.693 46.1164 99.8119 46.9189 99.1628L119.675 40.2003C121.184 38.9954 123.057 38.3391 124.988 38.3391C126.918 38.3391 128.792 38.9954 130.3 40.2003L203.425 99.1628C203.977 99.5588 204.443 100.063 204.793 100.645C205.144 101.227 205.372 101.874 205.465 102.547C205.557 103.22 205.511 103.905 205.33 104.56C205.148 105.215 204.836 105.826 204.41 106.355C203.985 106.885 203.456 107.323 202.856 107.641C202.256 107.96 201.598 108.153 200.921 108.209C200.244 108.265 199.562 108.182 198.918 107.965C198.274 107.749 197.681 107.404 197.175 106.95L125 48.7503L53.1939 106.932C52.3033 107.655 51.1911 108.05 50.0439 108.05Z" fill="#0095D3"/>
<path d="M125 209.375C121.243 209.384 117.595 208.107 114.663 205.756L6.49415 118.594C4.66431 117.142 3.18614 115.295 2.17006 113.192C1.15397 111.089 0.626221 108.783 0.626221 106.447C0.626221 104.111 1.15397 101.805 2.17006 99.702C3.18614 97.5986 4.66431 95.7521 6.49415 94.3001L114.663 7.13136C117.599 4.78861 121.244 3.5127 125 3.5127C128.757 3.5127 132.402 4.78861 135.338 7.13136L243.507 94.3001C245.336 95.7521 246.815 97.5986 247.831 99.702C248.847 101.805 249.375 104.111 249.375 106.447C249.375 108.783 248.847 111.089 247.831 113.192C246.815 115.295 245.336 117.142 243.507 118.594L135.338 205.763C132.405 208.111 128.758 209.386 125 209.375ZM120.938 197.969C122.097 198.877 123.528 199.371 125 199.371C126.473 199.371 127.904 198.877 129.063 197.969L237.232 110.806C237.898 110.292 238.438 109.631 238.81 108.876C239.181 108.12 239.374 107.289 239.374 106.447C239.374 105.605 239.181 104.774 238.81 104.018C238.438 103.263 237.898 102.602 237.232 102.088L129.063 14.9189C127.904 14.0106 126.473 13.517 125 13.517C123.528 13.517 122.097 14.0106 120.938 14.9189L12.7692 102.088C12.1025 102.602 11.5626 103.263 11.1912 104.018C10.8198 104.774 10.6266 105.605 10.6266 106.447C10.6266 107.289 10.8198 108.12 11.1912 108.876C11.5626 109.631 12.1025 110.292 12.7692 110.806L120.938 197.969Z" fill="#0095D3"/>
<path d="M125.001 148.612C123.863 148.61 122.761 148.22 121.876 147.506L80.4068 114.094C79.8251 113.625 79.3557 113.032 79.0333 112.358C78.7108 111.685 78.5435 110.947 78.5435 110.2C78.5435 109.453 78.7108 108.716 79.0333 108.042C79.3557 107.368 79.8251 106.775 80.4068 106.306L121.876 72.8875C122.762 72.1775 123.864 71.7906 125.001 71.7906C126.137 71.7906 127.239 72.1775 128.126 72.8875L169.588 106.306C170.17 106.775 170.639 107.368 170.962 108.042C171.284 108.716 171.451 109.453 171.451 110.2C171.451 110.947 171.284 111.685 170.962 112.358C170.639 113.032 170.17 113.625 169.588 114.094L128.126 147.5C127.241 148.216 126.138 148.608 125.001 148.612ZM91.5005 110.2L125.001 137.194L158.501 110.2L125.001 83.2063L91.5005 110.2Z" fill="#85C81A"/>
</svg>
